<svg viewBox="0 0 300 125" xmlns="http://www.w3.org/2000/svg">
<rect x="0" y="0" width="300" height="125" fill="#f1d9c9"/>
<g fill="#d97757" stroke="#9a3412" stroke-width="0.8"><rect x="0.0" y="0" width="44.0" height="13"/><rect x="47.0" y="0" width="20.0" height="13"/><rect x="70.0" y="0" width="44.0" height="13"/><rect x="117.0" y="0" width="20.0" height="13"/><rect x="140.0" y="0" width="44.0" height="13"/><rect x="187.0" y="0" width="20.0" height="13"/><rect x="210.0" y="0" width="44.0" height="13"/><rect x="257.0" y="0" width="20.0" height="13"/><rect x="280.0" y="0" width="20.0" height="13"/><rect x="0.0" y="16" width="8.5" height="13"/><rect x="11.5" y="16" width="44.0" height="13"/><rect x="58.5" y="16" width="20.0" height="13"/><rect x="81.5" y="16" width="44.0" height="13"/><rect x="128.5" y="16" width="20.0" height="13"/><rect x="151.5" y="16" width="44.0" height="13"/><rect x="198.5" y="16" width="20.0" height="13"/><rect x="221.5" y="16" width="44.0" height="13"/><rect x="268.5" y="16" width="20.0" height="13"/><rect x="291.5" y="16" width="8.5" height="13"/><rect x="0.0" y="32" width="44.0" height="13"/><rect x="47.0" y="32" width="20.0" height="13"/><rect x="70.0" y="32" width="44.0" height="13"/><rect x="117.0" y="32" width="20.0" height="13"/><rect x="140.0" y="32" width="44.0" height="13"/><rect x="187.0" y="32" width="20.0" height="13"/><rect x="210.0" y="32" width="44.0" height="13"/><rect x="257.0" y="32" width="20.0" height="13"/><rect x="280.0" y="32" width="20.0" height="13"/><rect x="0.0" y="48" width="8.5" height="13"/><rect x="11.5" y="48" width="44.0" height="13"/><rect x="58.5" y="48" width="20.0" height="13"/><rect x="81.5" y="48" width="44.0" height="13"/><rect x="128.5" y="48" width="20.0" height="13"/><rect x="151.5" y="48" width="44.0" height="13"/><rect x="198.5" y="48" width="20.0" height="13"/><rect x="221.5" y="48" width="44.0" height="13"/><rect x="268.5" y="48" width="20.0" height="13"/><rect x="291.5" y="48" width="8.5" height="13"/><rect x="0.0" y="64" width="44.0" height="13"/><rect x="47.0" y="64" width="20.0" height="13"/><rect x="70.0" y="64" width="44.0" height="13"/><rect x="117.0" y="64" width="20.0" height="13"/><rect x="140.0" y="64" width="44.0" height="13"/><rect x="187.0" y="64" width="20.0" height="13"/><rect x="210.0" y="64" width="44.0" height="13"/><rect x="257.0" y="64" width="20.0" height="13"/><rect x="280.0" y="64" width="20.0" height="13"/><rect x="0.0" y="80" width="8.5" height="13"/><rect x="11.5" y="80" width="44.0" height="13"/><rect x="58.5" y="80" width="20.0" height="13"/><rect x="81.5" y="80" width="44.0" height="13"/><rect x="128.5" y="80" width="20.0" height="13"/><rect x="151.5" y="80" width="44.0" height="13"/><rect x="198.5" y="80" width="20.0" height="13"/><rect x="221.5" y="80" width="44.0" height="13"/><rect x="268.5" y="80" width="20.0" height="13"/><rect x="291.5" y="80" width="8.5" height="13"/><rect x="0.0" y="96" width="44.0" height="13"/><rect x="47.0" y="96" width="20.0" height="13"/><rect x="70.0" y="96" width="44.0" height="13"/><rect x="117.0" y="96" width="20.0" height="13"/><rect x="140.0" y="96" width="44.0" height="13"/><rect x="187.0" y="96" width="20.0" height="13"/><rect x="210.0" y="96" width="44.0" height="13"/><rect x="257.0" y="96" width="20.0" height="13"/><rect x="280.0" y="96" width="20.0" height="13"/><rect x="0.0" y="112" width="8.5" height="13"/><rect x="11.5" y="112" width="44.0" height="13"/><rect x="58.5" y="112" width="20.0" height="13"/><rect x="81.5" y="112" width="44.0" height="13"/><rect x="128.5" y="112" width="20.0" height="13"/><rect x="151.5" y="112" width="44.0" height="13"/><rect x="198.5" y="112" width="20.0" height="13"/><rect x="221.5" y="112" width="44.0" height="13"/><rect x="268.5" y="112" width="20.0" height="13"/><rect x="291.5" y="112" width="8.5" height="13"/></g>
</svg>
