<svg viewBox="0 0 300 125" xmlns="http://www.w3.org/2000/svg">
<rect x="0" y="0" width="300" height="125" fill="#f1d9c9"/>
<g fill="#d97757" stroke="#9a3412" stroke-width="0.8"><rect x="0.0" y="0" width="44.0" height="13"/><rect x="47.0" y="0" width="44.0" height="13"/><rect x="94.0" y="0" width="44.0" height="13"/><rect x="141.0" y="0" width="44.0" height="13"/><rect x="188.0" y="0" width="44.0" height="13"/><rect x="235.0" y="0" width="44.0" height="13"/><rect x="282.0" y="0" width="18.0" height="13"/><rect x="0.0" y="16" width="8.5" height="13"/><rect x="11.5" y="16" width="20.0" height="13"/><rect x="34.5" y="16" width="20.0" height="13"/><rect x="57.5" y="16" width="20.0" height="13"/><rect x="80.5" y="16" width="20.0" height="13"/><rect x="103.5" y="16" width="20.0" height="13"/><rect x="126.5" y="16" width="20.0" height="13"/><rect x="149.5" y="16" width="20.0" height="13"/><rect x="172.5" y="16" width="20.0" height="13"/><rect x="195.5" y="16" width="20.0" height="13"/><rect x="218.5" y="16" width="20.0" height="13"/><rect x="241.5" y="16" width="20.0" height="13"/><rect x="264.5" y="16" width="20.0" height="13"/><rect x="287.5" y="16" width="12.5" height="13"/><rect x="0.0" y="32" width="44.0" height="13"/><rect x="47.0" y="32" width="44.0" height="13"/><rect x="94.0" y="32" width="44.0" height="13"/><rect x="141.0" y="32" width="44.0" height="13"/><rect x="188.0" y="32" width="44.0" height="13"/><rect x="235.0" y="32" width="44.0" height="13"/><rect x="282.0" y="32" width="18.0" height="13"/><rect x="0.0" y="48" width="8.5" height="13"/><rect x="11.5" y="48" width="20.0" height="13"/><rect x="34.5" y="48" width="20.0" height="13"/><rect x="57.5" y="48" width="20.0" height="13"/><rect x="80.5" y="48" width="20.0" height="13"/><rect x="103.5" y="48" width="20.0" height="13"/><rect x="126.5" y="48" width="20.0" height="13"/><rect x="149.5" y="48" width="20.0" height="13"/><rect x="172.5" y="48" width="20.0" height="13"/><rect x="195.5" y="48" width="20.0" height="13"/><rect x="218.5" y="48" width="20.0" height="13"/><rect x="241.5" y="48" width="20.0" height="13"/><rect x="264.5" y="48" width="20.0" height="13"/><rect x="287.5" y="48" width="12.5" height="13"/><rect x="0.0" y="64" width="44.0" height="13"/><rect x="47.0" y="64" width="44.0" height="13"/><rect x="94.0" y="64" width="44.0" height="13"/><rect x="141.0" y="64" width="44.0" height="13"/><rect x="188.0" y="64" width="44.0" height="13"/><rect x="235.0" y="64" width="44.0" height="13"/><rect x="282.0" y="64" width="18.0" height="13"/><rect x="0.0" y="80" width="8.5" height="13"/><rect x="11.5" y="80" width="20.0" height="13"/><rect x="34.5" y="80" width="20.0" height="13"/><rect x="57.5" y="80" width="20.0" height="13"/><rect x="80.5" y="80" width="20.0" height="13"/><rect x="103.5" y="80" width="20.0" height="13"/><rect x="126.5" y="80" width="20.0" height="13"/><rect x="149.5" y="80" width="20.0" height="13"/><rect x="172.5" y="80" width="20.0" height="13"/><rect x="195.5" y="80" width="20.0" height="13"/><rect x="218.5" y="80" width="20.0" height="13"/><rect x="241.5" y="80" width="20.0" height="13"/><rect x="264.5" y="80" width="20.0" height="13"/><rect x="287.5" y="80" width="12.5" height="13"/><rect x="0.0" y="96" width="44.0" height="13"/><rect x="47.0" y="96" width="44.0" height="13"/><rect x="94.0" y="96" width="44.0" height="13"/><rect x="141.0" y="96" width="44.0" height="13"/><rect x="188.0" y="96" width="44.0" height="13"/><rect x="235.0" y="96" width="44.0" height="13"/><rect x="282.0" y="96" width="18.0" height="13"/><rect x="0.0" y="112" width="8.5" height="13"/><rect x="11.5" y="112" width="20.0" height="13"/><rect x="34.5" y="112" width="20.0" height="13"/><rect x="57.5" y="112" width="20.0" height="13"/><rect x="80.5" y="112" width="20.0" height="13"/><rect x="103.5" y="112" width="20.0" height="13"/><rect x="126.5" y="112" width="20.0" height="13"/><rect x="149.5" y="112" width="20.0" height="13"/><rect x="172.5" y="112" width="20.0" height="13"/><rect x="195.5" y="112" width="20.0" height="13"/><rect x="218.5" y="112" width="20.0" height="13"/><rect x="241.5" y="112" width="20.0" height="13"/><rect x="264.5" y="112" width="20.0" height="13"/><rect x="287.5" y="112" width="12.5" height="13"/></g>
</svg>
