<svg viewBox="0 0 300 125" xmlns="http://www.w3.org/2000/svg">
<rect x="0" y="0" width="300" height="125" fill="#f1d9c9"/>
<g fill="#d97757" stroke="#9a3412" stroke-width="0.8"><rect x="0.0" y="0" width="44.0" height="13"/><rect x="47.0" y="0" width="44.0" height="13"/><rect x="94.0" y="0" width="44.0" height="13"/><rect x="141.0" y="0" width="44.0" height="13"/><rect x="188.0" y="0" width="44.0" height="13"/><rect x="235.0" y="0" width="44.0" height="13"/><rect x="282.0" y="0" width="18.0" height="13"/><rect x="0.0" y="16" width="20.5" height="13"/><rect x="23.5" y="16" width="44.0" height="13"/><rect x="70.5" y="16" width="44.0" height="13"/><rect x="117.5" y="16" width="44.0" height="13"/><rect x="164.5" y="16" width="44.0" height="13"/><rect x="211.5" y="16" width="44.0" height="13"/><rect x="258.5" y="16" width="41.5" height="13"/><rect x="0.0" y="32" width="44.0" height="13"/><rect x="47.0" y="32" width="44.0" height="13"/><rect x="94.0" y="32" width="44.0" height="13"/><rect x="141.0" y="32" width="44.0" height="13"/><rect x="188.0" y="32" width="44.0" height="13"/><rect x="235.0" y="32" width="44.0" height="13"/><rect x="282.0" y="32" width="18.0" height="13"/><rect x="0.0" y="48" width="20.5" height="13"/><rect x="23.5" y="48" width="44.0" height="13"/><rect x="70.5" y="48" width="44.0" height="13"/><rect x="117.5" y="48" width="44.0" height="13"/><rect x="164.5" y="48" width="44.0" height="13"/><rect x="211.5" y="48" width="44.0" height="13"/><rect x="258.5" y="48" width="41.5" height="13"/><rect x="0.0" y="64" width="44.0" height="13"/><rect x="47.0" y="64" width="44.0" height="13"/><rect x="94.0" y="64" width="44.0" height="13"/><rect x="141.0" y="64" width="44.0" height="13"/><rect x="188.0" y="64" width="44.0" height="13"/><rect x="235.0" y="64" width="44.0" height="13"/><rect x="282.0" y="64" width="18.0" height="13"/><rect x="0.0" y="80" width="20.5" height="13"/><rect x="23.5" y="80" width="44.0" height="13"/><rect x="70.5" y="80" width="44.0" height="13"/><rect x="117.5" y="80" width="44.0" height="13"/><rect x="164.5" y="80" width="44.0" height="13"/><rect x="211.5" y="80" width="44.0" height="13"/><rect x="258.5" y="80" width="41.5" height="13"/><rect x="0.0" y="96" width="44.0" height="13"/><rect x="47.0" y="96" width="44.0" height="13"/><rect x="94.0" y="96" width="44.0" height="13"/><rect x="141.0" y="96" width="44.0" height="13"/><rect x="188.0" y="96" width="44.0" height="13"/><rect x="235.0" y="96" width="44.0" height="13"/><rect x="282.0" y="96" width="18.0" height="13"/><rect x="0.0" y="112" width="20.5" height="13"/><rect x="23.5" y="112" width="44.0" height="13"/><rect x="70.5" y="112" width="44.0" height="13"/><rect x="117.5" y="112" width="44.0" height="13"/><rect x="164.5" y="112" width="44.0" height="13"/><rect x="211.5" y="112" width="44.0" height="13"/><rect x="258.5" y="112" width="41.5" height="13"/></g>
</svg>
